<svg xmlns="http://www.w3.org/2000/svg" xmlns:xlink="http://www.w3.org/1999/xlink" width="500" zoomAndPan="magnify" viewBox="0 0 375 374.999991" height="500" preserveAspectRatio="xMidYMid meet" version="1.0"><defs><clipPath id="d89c909394"><path d="M 0 49 L 170 49 L 170 251 L 0 251 Z M 0 49 " clip-rule="nonzero"/></clipPath><clipPath id="3c3fd2f4a9"><path d="M 0.136719 132.90625 C 0.527344 132.308594 1.082031 132.558594 1.558594 132.691406 C 13.304688 136.007812 25.214844 135.492188 37.136719 134.199219 C 46.347656 133.195312 55.542969 131.996094 64.867188 131.238281 C 59.902344 130.140625 54.933594 129.074219 49.976562 127.9375 C 42.132812 126.128906 34.34375 124.152344 27.078125 120.527344 C 15.617188 114.800781 10.210938 104.742188 6.996094 92.917969 C 7.960938 92.90625 8.296875 93.496094 8.738281 93.882812 C 17.238281 101.40625 27.191406 105.914062 38.25 108.089844 C 47.859375 109.984375 57.585938 111.257812 67.15625 114.152344 C 66.769531 112.917969 65.796875 112.785156 65.09375 112.363281 C 55.269531 106.394531 45.269531 100.703125 35.945312 93.949219 C 34.511719 92.90625 33.144531 91.78125 31.726562 90.722656 C 20.699219 82.402344 16.144531 71.171875 16.902344 57.574219 C 17.050781 54.839844 17.230469 52.101562 17.398438 49.222656 C 17.640625 49.410156 17.933594 49.523438 17.96875 49.683594 C 20.511719 60.441406 27.445312 68.082031 35.796875 74.667969 C 43.667969 80.890625 52.320312 85.933594 61.269531 90.394531 C 84.023438 101.714844 104.96875 116.167969 127.324219 128.191406 C 136.132812 132.933594 144.390625 138.613281 152 145.144531 C 156.996094 149.429688 161.539062 154.125 164.902344 159.839844 C 168.785156 166.441406 170.066406 173.382812 168.410156 181.003906 C 165.691406 193.449219 164.527344 206.175781 161.753906 218.621094 C 159.300781 229.644531 155.230469 239.914062 147.632812 248.511719 C 146.949219 249.277344 146.386719 250.207031 145.121094 250.777344 C 146.199219 246.839844 147.339844 243.148438 147.949219 239.316406 C 149.328125 230.695312 147.511719 222.625 143.976562 214.808594 C 141.539062 209.417969 138.972656 204.058594 138.15625 198.097656 C 137.632812 194.246094 137.820312 190.414062 138.617188 185.832031 C 135.550781 188.6875 133.03125 191.003906 130.546875 193.355469 C 123.207031 200.300781 115.8125 207.179688 106.722656 211.835938 C 98.980469 215.800781 90.949219 217.574219 82.410156 214.546875 C 81.859375 214.347656 81.324219 214.105469 80.761719 213.683594 C 89.019531 213.730469 94.578125 209.035156 99.570312 203.355469 C 103.378906 199.015625 106.449219 194.144531 109.628906 189.355469 C 111.671875 186.261719 113.769531 183.207031 115.964844 179.964844 C 110.445312 181.285156 105.242188 183.179688 100.023438 185.035156 C 91.941406 187.902344 83.988281 191.171875 75.4375 192.445312 C 67.96875 193.5625 60.695312 192.960938 53.761719 189.457031 C 61.53125 189.027344 67.417969 184.6875 73.273438 180.328125 C 77.792969 176.964844 82.289062 173.570312 88.222656 171.105469 C 82.121094 170.574219 76.875 171.726562 71.605469 172.324219 C 61.390625 173.476562 51.195312 174.734375 40.921875 173.074219 C 33.144531 171.820312 26.039062 168.894531 19.496094 164.226562 C 29.167969 165.191406 36.78125 160.066406 44.746094 156.046875 C 48.691406 154.050781 52.769531 152.417969 57.03125 150.84375 C 50.511719 150.480469 43.988281 150.121094 37.464844 149.738281 C 31.804688 149.402344 26.199219 148.6875 20.714844 147.125 C 12.226562 144.707031 5.488281 139.824219 0.171875 132.859375 C 0.183594 132.839844 0.136719 132.90625 0.136719 132.90625 Z M 0.136719 132.90625 " clip-rule="nonzero"/></clipPath><linearGradient x1="39.599008" gradientTransform="matrix(0.937198, 0, 0, 0.937198, -46.799471, -42.583679)" y1="108.440923" x2="237.788635" gradientUnits="userSpaceOnUse" y2="306.631357" id="991a07a323"><stop stop-opacity="1" stop-color="rgb(100%, 0%, 21.598816%)" offset="0"/><stop stop-opacity="1" stop-color="rgb(99.913025%, 0.0427246%, 21.614075%)" offset="0.125"/><stop stop-opacity="1" stop-color="rgb(99.69635%, 0.151062%, 21.650696%)" offset="0.140625"/><stop stop-opacity="1" stop-color="rgb(99.433899%, 0.282288%, 21.696472%)" offset="0.15625"/><stop stop-opacity="1" stop-color="rgb(99.171448%, 0.413513%, 21.740723%)" offset="0.171875"/><stop stop-opacity="1" stop-color="rgb(98.908997%, 0.543213%, 21.786499%)" offset="0.1875"/><stop stop-opacity="1" stop-color="rgb(98.648071%, 0.674438%, 21.83075%)" offset="0.203125"/><stop stop-opacity="1" stop-color="rgb(98.38562%, 0.805664%, 21.875%)" offset="0.21875"/><stop stop-opacity="1" stop-color="rgb(98.123169%, 0.93689%, 21.920776%)" offset="0.234375"/><stop stop-opacity="1" stop-color="rgb(97.860718%, 1.068115%, 21.965027%)" offset="0.25"/><stop stop-opacity="1" stop-color="rgb(97.599792%, 1.199341%, 22.010803%)" offset="0.265625"/><stop stop-opacity="1" stop-color="rgb(97.337341%, 1.330566%, 22.055054%)" offset="0.28125"/><stop stop-opacity="1" stop-color="rgb(97.07489%, 1.461792%, 22.10083%)" offset="0.296875"/><stop stop-opacity="1" stop-color="rgb(96.812439%, 1.591492%, 22.145081%)" offset="0.3125"/><stop stop-opacity="1" stop-color="rgb(96.551514%, 1.722717%, 22.190857%)" offset="0.328125"/><stop stop-opacity="1" stop-color="rgb(96.289062%, 1.853943%, 22.235107%)" offset="0.34375"/><stop stop-opacity="1" stop-color="rgb(96.026611%, 1.985168%, 22.280884%)" offset="0.359375"/><stop stop-opacity="1" stop-color="rgb(95.76416%, 2.116394%, 22.325134%)" offset="0.375"/><stop stop-opacity="1" stop-color="rgb(95.501709%, 2.24762%, 22.370911%)" offset="0.390625"/><stop stop-opacity="1" stop-color="rgb(95.240784%, 2.378845%, 22.415161%)" offset="0.40625"/><stop stop-opacity="1" stop-color="rgb(94.978333%, 2.510071%, 22.460938%)" offset="0.421875"/><stop stop-opacity="1" stop-color="rgb(94.715881%, 2.641296%, 22.505188%)" offset="0.4375"/><stop stop-opacity="1" stop-color="rgb(94.45343%, 2.770996%, 22.549438%)" offset="0.453125"/><stop stop-opacity="1" stop-color="rgb(94.192505%, 2.902222%, 22.595215%)" offset="0.457439"/><stop stop-opacity="1" stop-color="rgb(94.061279%, 2.967834%, 22.618103%)" offset="0.46875"/><stop stop-opacity="1" stop-color="rgb(93.930054%, 3.033447%, 22.639465%)" offset="0.484375"/><stop stop-opacity="1" stop-color="rgb(93.667603%, 3.164673%, 22.685242%)" offset="0.5"/><stop stop-opacity="1" stop-color="rgb(93.405151%, 3.295898%, 22.729492%)" offset="0.515625"/><stop stop-opacity="1" stop-color="rgb(93.144226%, 3.427124%, 22.775269%)" offset="0.53125"/><stop stop-opacity="1" stop-color="rgb(92.881775%, 3.55835%, 22.819519%)" offset="0.542561"/><stop stop-opacity="1" stop-color="rgb(92.750549%, 3.623962%, 22.842407%)" offset="0.546875"/><stop stop-opacity="1" stop-color="rgb(92.619324%, 3.689575%, 22.865295%)" offset="0.5625"/><stop stop-opacity="1" stop-color="rgb(92.356873%, 3.820801%, 22.909546%)" offset="0.578125"/><stop stop-opacity="1" stop-color="rgb(92.094421%, 3.9505%, 22.955322%)" offset="0.59375"/><stop stop-opacity="1" stop-color="rgb(91.833496%, 4.081726%, 22.999573%)" offset="0.609375"/><stop stop-opacity="1" stop-color="rgb(91.571045%, 4.212952%, 23.045349%)" offset="0.625"/><stop stop-opacity="1" stop-color="rgb(91.308594%, 4.344177%, 23.0896%)" offset="0.640625"/><stop stop-opacity="1" stop-color="rgb(91.046143%, 4.475403%, 23.135376%)" offset="0.65625"/><stop stop-opacity="1" stop-color="rgb(90.785217%, 4.606628%, 23.179626%)" offset="0.671875"/><stop stop-opacity="1" stop-color="rgb(90.522766%, 4.737854%, 23.225403%)" offset="0.6875"/><stop stop-opacity="1" stop-color="rgb(90.260315%, 4.86908%, 23.269653%)" offset="0.703125"/><stop stop-opacity="1" stop-color="rgb(89.997864%, 4.998779%, 23.313904%)" offset="0.71875"/><stop stop-opacity="1" stop-color="rgb(89.736938%, 5.130005%, 23.35968%)" offset="0.734375"/><stop stop-opacity="1" stop-color="rgb(89.474487%, 5.26123%, 23.403931%)" offset="0.75"/><stop stop-opacity="1" stop-color="rgb(89.212036%, 5.392456%, 23.449707%)" offset="0.765625"/><stop stop-opacity="1" stop-color="rgb(88.949585%, 5.523682%, 23.493958%)" offset="0.78125"/><stop stop-opacity="1" stop-color="rgb(88.687134%, 5.654907%, 23.539734%)" offset="0.796875"/><stop stop-opacity="1" stop-color="rgb(88.426208%, 5.786133%, 23.583984%)" offset="0.8125"/><stop stop-opacity="1" stop-color="rgb(88.163757%, 5.917358%, 23.629761%)" offset="0.828125"/><stop stop-opacity="1" stop-color="rgb(87.901306%, 6.048584%, 23.674011%)" offset="0.84375"/><stop stop-opacity="1" stop-color="rgb(87.638855%, 6.178284%, 23.719788%)" offset="0.859375"/><stop stop-opacity="1" stop-color="rgb(87.37793%, 6.309509%, 23.764038%)" offset="0.875"/><stop stop-opacity="1" stop-color="rgb(87.115479%, 6.440735%, 23.809814%)" offset="0.890625"/><stop stop-opacity="1" stop-color="rgb(86.853027%, 6.57196%, 23.854065%)" offset="0.90625"/><stop stop-opacity="1" stop-color="rgb(86.590576%, 6.703186%, 23.899841%)" offset="0.921875"/><stop stop-opacity="1" stop-color="rgb(86.329651%, 6.834412%, 23.944092%)" offset="0.9375"/><stop stop-opacity="1" stop-color="rgb(86.0672%, 6.965637%, 23.989868%)" offset="0.953125"/><stop stop-opacity="1" stop-color="rgb(85.804749%, 7.096863%, 24.034119%)" offset="0.96875"/><stop stop-opacity="1" stop-color="rgb(85.542297%, 7.228088%, 24.078369%)" offset="0.984375"/><stop stop-opacity="1" stop-color="rgb(85.279846%, 7.357788%, 24.124146%)" offset="1"/></linearGradient><clipPath id="1551b46103"><path d="M 213 49 L 375 49 L 375 251 L 213 251 Z M 213 49 " clip-rule="nonzero"/></clipPath><clipPath id="9180382ae3"><path d="M 374.816406 132.683594 C 369.558594 140.582031 362.007812 145.117188 353.019531 147.515625 C 345.699219 149.476562 338.164062 149.71875 330.65625 150.152344 C 326.589844 150.386719 322.53125 150.582031 318.304688 150.808594 C 318.492188 151.089844 318.578125 151.378906 318.726562 151.417969 C 325.128906 153.054688 330.863281 156.222656 336.65625 159.25 C 342.523438 162.316406 348.53125 164.828125 355.390625 163.984375 C 355.632812 165.109375 354.667969 165.15625 354.171875 165.464844 C 343.964844 171.96875 332.710938 174.285156 320.742188 173.816406 C 310.019531 173.394531 299.457031 171.507812 288.78125 170.648438 C 287.902344 170.574219 287.03125 170.496094 286.074219 170.582031 C 293.84375 173.488281 299.871094 179.0625 306.550781 183.628906 C 311.023438 186.691406 315.773438 189.074219 321.398438 189.410156 C 317.882812 191.386719 314.117188 192.34375 310.1875 192.726562 C 302.261719 193.523438 294.714844 191.742188 287.273438 189.277344 C 279.054688 186.5625 271.03125 183.242188 262.699219 180.84375 C 261.761719 180.574219 260.863281 180.167969 259.644531 180.589844 C 265.773438 188.820312 270.40625 198.023438 277.566406 205.425781 C 282.261719 210.273438 287.574219 213.84375 295.492188 213.382812 C 286.535156 217.40625 278.472656 216.382812 270.527344 212.792969 C 263.683594 209.699219 257.761719 205.210938 252.203125 200.234375 C 248.050781 196.515625 244.042969 192.632812 239.9375 188.855469 C 238.988281 187.984375 238.183594 186.890625 236.65625 186.410156 C 238.484375 195.773438 235.136719 203.75 230.582031 211.425781 C 227.601562 216.4375 224.339844 221.292969 221.980469 226.65625 C 218.832031 233.804688 218.191406 241.144531 220.433594 248.667969 C 220.65625 249.429688 220.996094 250.148438 220.640625 250.957031 C 213.140625 238.78125 211.6875 225.980469 216.253906 212.371094 C 218.707031 205.070312 220.675781 197.601562 220.207031 189.765625 C 220.078125 187.480469 219.925781 185.15625 219.421875 182.925781 C 217.332031 173.617188 219.121094 165.003906 223.882812 156.910156 C 229.832031 146.804688 238.203125 138.90625 247.507812 132.054688 C 268.53125 116.5625 290.246094 102.148438 313.703125 90.5 C 322.652344 86.054688 331.292969 81.003906 339.195312 74.800781 C 346.382812 69.160156 352.617188 62.730469 355.894531 53.949219 C 356.4375 52.496094 356.859375 50.996094 357.433594 49.242188 C 361.199219 65.972656 356.363281 80.152344 343.46875 90.6875 C 337.902344 95.230469 331.875 99.101562 325.773438 102.851562 C 319.765625 106.550781 313.695312 110.152344 307.519531 113.871094 C 307.789062 113.945312 308.003906 114.097656 308.164062 114.050781 C 317.6875 111.21875 327.515625 109.90625 337.226562 107.996094 C 348.585938 105.757812 358.679688 100.957031 367.273438 93.140625 C 367.527344 92.917969 367.835938 92.746094 368.183594 92.503906 C 364.535156 108.726562 355.128906 119.421875 339.09375 124.21875 C 329.523438 127.085938 319.757812 129.0625 310.03125 131.398438 C 316.035156 131.875 322.035156 132.335938 328.003906 133.039062 C 336.09375 133.976562 344.179688 135.007812 352.324219 135.15625 C 359.34375 135.285156 366.289062 134.667969 373.082031 132.804688 C 373.644531 132.644531 374.246094 132.289062 374.855469 132.710938 Z M 374.816406 132.683594 " clip-rule="nonzero"/></clipPath><linearGradient x1="263.252008" gradientTransform="matrix(0.937198, 0, 0, 0.937198, -46.799471, -42.583679)" y1="110.538011" x2="457.917003" gradientUnits="userSpaceOnUse" y2="305.203015" id="d3b0f51e89"><stop stop-opacity="1" stop-color="rgb(92.370605%, 3.813171%, 22.90802%)" offset="0"/><stop stop-opacity="1" stop-color="rgb(92.240906%, 3.877258%, 22.929382%)" offset="0.015625"/><stop stop-opacity="1" stop-color="rgb(91.984558%, 4.006958%, 22.973633%)" offset="0.03125"/><stop stop-opacity="1" stop-color="rgb(91.726685%, 4.135132%, 23.017883%)" offset="0.046875"/><stop stop-opacity="1" stop-color="rgb(91.468811%, 4.263306%, 23.062134%)" offset="0.0625"/><stop stop-opacity="1" stop-color="rgb(91.210938%, 4.393005%, 23.106384%)" offset="0.078125"/><stop stop-opacity="1" stop-color="rgb(90.95459%, 4.521179%, 23.150635%)" offset="0.09375"/><stop stop-opacity="1" stop-color="rgb(90.696716%, 4.649353%, 23.194885%)" offset="0.109375"/><stop stop-opacity="1" stop-color="rgb(90.438843%, 4.779053%, 23.239136%)" offset="0.125"/><stop stop-opacity="1" stop-color="rgb(90.182495%, 4.907227%, 23.283386%)" offset="0.140625"/><stop stop-opacity="1" stop-color="rgb(89.924622%, 5.0354%, 23.327637%)" offset="0.15625"/><stop stop-opacity="1" stop-color="rgb(89.666748%, 5.1651%, 23.370361%)" offset="0.171875"/><stop stop-opacity="1" stop-color="rgb(89.408875%, 5.293274%, 23.414612%)" offset="0.1875"/><stop stop-opacity="1" stop-color="rgb(89.152527%, 5.422974%, 23.458862%)" offset="0.203125"/><stop stop-opacity="1" stop-color="rgb(88.894653%, 5.551147%, 23.503113%)" offset="0.21875"/><stop stop-opacity="1" stop-color="rgb(88.63678%, 5.679321%, 23.547363%)" offset="0.234375"/><stop stop-opacity="1" stop-color="rgb(88.380432%, 5.809021%, 23.591614%)" offset="0.25"/><stop stop-opacity="1" stop-color="rgb(88.122559%, 5.937195%, 23.635864%)" offset="0.265625"/><stop stop-opacity="1" stop-color="rgb(87.864685%, 6.065369%, 23.680115%)" offset="0.28125"/><stop stop-opacity="1" stop-color="rgb(87.606812%, 6.195068%, 23.724365%)" offset="0.296875"/><stop stop-opacity="1" stop-color="rgb(87.350464%, 6.323242%, 23.768616%)" offset="0.3125"/><stop stop-opacity="1" stop-color="rgb(87.09259%, 6.451416%, 23.812866%)" offset="0.328125"/><stop stop-opacity="1" stop-color="rgb(86.834717%, 6.581116%, 23.857117%)" offset="0.34375"/><stop stop-opacity="1" stop-color="rgb(86.578369%, 6.70929%, 23.901367%)" offset="0.359375"/><stop stop-opacity="1" stop-color="rgb(86.320496%, 6.837463%, 23.945618%)" offset="0.375"/><stop stop-opacity="1" stop-color="rgb(86.062622%, 6.967163%, 23.989868%)" offset="0.390625"/><stop stop-opacity="1" stop-color="rgb(85.804749%, 7.095337%, 24.034119%)" offset="0.40625"/><stop stop-opacity="1" stop-color="rgb(85.548401%, 7.225037%, 24.078369%)" offset="0.421875"/><stop stop-opacity="1" stop-color="rgb(85.290527%, 7.35321%, 24.12262%)" offset="0.4375"/><stop stop-opacity="1" stop-color="rgb(85.032654%, 7.481384%, 24.16687%)" offset="0.447179"/><stop stop-opacity="1" stop-color="rgb(84.90448%, 7.546997%, 24.188232%)" offset="0.453125"/><stop stop-opacity="1" stop-color="rgb(84.776306%, 7.611084%, 24.209595%)" offset="0.46875"/><stop stop-opacity="1" stop-color="rgb(84.518433%, 7.739258%, 24.253845%)" offset="0.484375"/><stop stop-opacity="1" stop-color="rgb(84.260559%, 7.867432%, 24.298096%)" offset="0.5"/><stop stop-opacity="1" stop-color="rgb(84.002686%, 7.997131%, 24.342346%)" offset="0.515625"/><stop stop-opacity="1" stop-color="rgb(83.746338%, 8.125305%, 24.386597%)" offset="0.53125"/><stop stop-opacity="1" stop-color="rgb(83.488464%, 8.253479%, 24.430847%)" offset="0.546875"/><stop stop-opacity="1" stop-color="rgb(83.230591%, 8.383179%, 24.475098%)" offset="0.552821"/><stop stop-opacity="1" stop-color="rgb(83.102417%, 8.447266%, 24.497986%)" offset="0.5625"/><stop stop-opacity="1" stop-color="rgb(82.974243%, 8.511353%, 24.519348%)" offset="0.578125"/><stop stop-opacity="1" stop-color="rgb(82.71637%, 8.639526%, 24.563599%)" offset="0.59375"/><stop stop-opacity="1" stop-color="rgb(82.458496%, 8.769226%, 24.607849%)" offset="0.609375"/><stop stop-opacity="1" stop-color="rgb(82.200623%, 8.8974%, 24.6521%)" offset="0.625"/><stop stop-opacity="1" stop-color="rgb(81.944275%, 9.0271%, 24.69635%)" offset="0.640625"/><stop stop-opacity="1" stop-color="rgb(81.686401%, 9.155273%, 24.740601%)" offset="0.65625"/><stop stop-opacity="1" stop-color="rgb(81.428528%, 9.283447%, 24.784851%)" offset="0.671875"/><stop stop-opacity="1" stop-color="rgb(81.17218%, 9.413147%, 24.829102%)" offset="0.6875"/><stop stop-opacity="1" stop-color="rgb(80.914307%, 9.541321%, 24.873352%)" offset="0.703125"/><stop stop-opacity="1" stop-color="rgb(80.656433%, 9.669495%, 24.917603%)" offset="0.71875"/><stop stop-opacity="1" stop-color="rgb(80.39856%, 9.799194%, 24.961853%)" offset="0.734375"/><stop stop-opacity="1" stop-color="rgb(80.142212%, 9.927368%, 25.004578%)" offset="0.75"/><stop stop-opacity="1" stop-color="rgb(79.884338%, 10.055542%, 25.048828%)" offset="0.765625"/><stop stop-opacity="1" stop-color="rgb(79.676819%, 10.159302%, 25.085449%)" offset="0.78125"/><stop stop-opacity="1" stop-color="rgb(79.598999%, 10.198975%, 25.099182%)" offset="0.8125"/><stop stop-opacity="1" stop-color="rgb(79.598999%, 10.198975%, 25.099182%)" offset="0.875"/><stop stop-opacity="1" stop-color="rgb(79.598999%, 10.198975%, 25.099182%)" offset="1"/></linearGradient><clipPath id="5c1a7f5aea"><path d="M 140 85 L 232 85 L 232 350.863281 L 140 350.863281 Z M 140 85 " clip-rule="nonzero"/></clipPath><clipPath id="2885e4e7cb"><path d="M 189.871094 351.09375 C 172.203125 330.796875 162.296875 307.488281 160.125 280.871094 C 158.382812 259.464844 161.464844 238.519531 165.792969 217.667969 C 169.535156 199.664062 174.492188 181.929688 177.40625 163.75 C 179.261719 152.175781 180.339844 140.5625 177.742188 128.933594 C 176.601562 123.796875 174.566406 119.035156 171.820312 114.539062 C 170.6875 112.683594 169.476562 112.203125 167.3125 112.589844 C 158.0625 114.226562 149.554688 112.417969 142.066406 106.5625 C 141.398438 106.046875 140.535156 105.644531 140.238281 104.5 C 152.316406 106.863281 162.730469 102.652344 172.730469 96.710938 C 176.523438 94.453125 180.347656 92.222656 184.21875 90.085938 C 188.90625 87.5 193.769531 86.355469 199.261719 87.386719 C 205.195312 88.503906 211.0625 87.003906 216.835938 85.625 C 221.484375 84.507812 225.785156 84.921875 229.683594 87.835938 C 230.453125 88.410156 231.3125 88.925781 231.726562 90.058594 C 229.8125 89.421875 228.003906 89.550781 226.308594 90.394531 C 219.242188 93.949219 212.578125 98.089844 207.078125 103.871094 C 199.589844 111.734375 198.585938 121.21875 200.3125 131.351562 C 201.980469 141.164062 205.886719 150.320312 208.800781 159.765625 C 212.09375 170.414062 214.230469 181.171875 212.871094 192.417969 C 211.746094 201.808594 207.976562 210.261719 204.03125 218.679688 C 198.070312 231.398438 191.519531 243.84375 186.308594 256.917969 C 174.246094 287.214844 176.308594 317.113281 188.605469 346.765625 C 189.074219 347.910156 189.535156 349.050781 189.972656 350.207031 C 190.03125 350.355469 189.9375 350.550781 189.871094 351.09375 Z M 189.871094 351.09375 " clip-rule="nonzero"/></clipPath><linearGradient x1="164.734483" gradientTransform="matrix(0.937198, 0, 0, 0.937198, -46.799471, -42.583679)" y1="170.445482" x2="355.64569" gradientUnits="userSpaceOnUse" y2="361.356691" id="23e769f476"><stop stop-opacity="1" stop-color="rgb(94.004822%, 2.996826%, 22.627258%)" offset="0"/><stop stop-opacity="1" stop-color="rgb(93.878174%, 3.059387%, 22.648621%)" offset="0.015625"/><stop stop-opacity="1" stop-color="rgb(93.624878%, 3.186035%, 22.692871%)" offset="0.03125"/><stop stop-opacity="1" stop-color="rgb(93.373108%, 3.311157%, 22.735596%)" offset="0.046875"/><stop stop-opacity="1" stop-color="rgb(93.119812%, 3.437805%, 22.77832%)" offset="0.0625"/><stop stop-opacity="1" stop-color="rgb(92.868042%, 3.564453%, 22.822571%)" offset="0.078125"/><stop stop-opacity="1" stop-color="rgb(92.616272%, 3.689575%, 22.865295%)" offset="0.09375"/><stop stop-opacity="1" stop-color="rgb(92.362976%, 3.816223%, 22.909546%)" offset="0.109375"/><stop stop-opacity="1" stop-color="rgb(92.111206%, 3.942871%, 22.952271%)" offset="0.125"/><stop stop-opacity="1" stop-color="rgb(91.85791%, 4.069519%, 22.994995%)" offset="0.140625"/><stop stop-opacity="1" stop-color="rgb(91.60614%, 4.194641%, 23.039246%)" offset="0.15625"/><stop stop-opacity="1" stop-color="rgb(91.352844%, 4.321289%, 23.08197%)" offset="0.171875"/><stop stop-opacity="1" stop-color="rgb(91.101074%, 4.447937%, 23.126221%)" offset="0.1875"/><stop stop-opacity="1" stop-color="rgb(90.847778%, 4.574585%, 23.168945%)" offset="0.203125"/><stop stop-opacity="1" stop-color="rgb(90.596008%, 4.699707%, 23.21167%)" offset="0.21875"/><stop stop-opacity="1" stop-color="rgb(90.342712%, 4.826355%, 23.25592%)" offset="0.234375"/><stop stop-opacity="1" stop-color="rgb(90.090942%, 4.953003%, 23.298645%)" offset="0.25"/><stop stop-opacity="1" stop-color="rgb(89.837646%, 5.079651%, 23.342896%)" offset="0.255669"/><stop stop-opacity="1" stop-color="rgb(89.712524%, 5.142212%, 23.364258%)" offset="0.265625"/><stop stop-opacity="1" stop-color="rgb(89.585876%, 5.204773%, 23.38562%)" offset="0.28125"/><stop stop-opacity="1" stop-color="rgb(89.334106%, 5.331421%, 23.428345%)" offset="0.296875"/><stop stop-opacity="1" stop-color="rgb(89.080811%, 5.458069%, 23.472595%)" offset="0.3125"/><stop stop-opacity="1" stop-color="rgb(88.829041%, 5.583191%, 23.51532%)" offset="0.328125"/><stop stop-opacity="1" stop-color="rgb(88.575745%, 5.709839%, 23.558044%)" offset="0.34375"/><stop stop-opacity="1" stop-color="rgb(88.323975%, 5.836487%, 23.602295%)" offset="0.359375"/><stop stop-opacity="1" stop-color="rgb(88.070679%, 5.963135%, 23.64502%)" offset="0.375"/><stop stop-opacity="1" stop-color="rgb(87.818909%, 6.088257%, 23.68927%)" offset="0.390625"/><stop stop-opacity="1" stop-color="rgb(87.565613%, 6.214905%, 23.731995%)" offset="0.40625"/><stop stop-opacity="1" stop-color="rgb(87.313843%, 6.341553%, 23.774719%)" offset="0.421875"/><stop stop-opacity="1" stop-color="rgb(87.060547%, 6.468201%, 23.81897%)" offset="0.4375"/><stop stop-opacity="1" stop-color="rgb(86.808777%, 6.593323%, 23.861694%)" offset="0.453125"/><stop stop-opacity="1" stop-color="rgb(86.555481%, 6.719971%, 23.905945%)" offset="0.46875"/><stop stop-opacity="1" stop-color="rgb(86.303711%, 6.846619%, 23.948669%)" offset="0.484375"/><stop stop-opacity="1" stop-color="rgb(86.051941%, 6.971741%, 23.991394%)" offset="0.5"/><stop stop-opacity="1" stop-color="rgb(85.798645%, 7.098389%, 24.035645%)" offset="0.515625"/><stop stop-opacity="1" stop-color="rgb(85.546875%, 7.225037%, 24.078369%)" offset="0.53125"/><stop stop-opacity="1" stop-color="rgb(85.293579%, 7.351685%, 24.121094%)" offset="0.546875"/><stop stop-opacity="1" stop-color="rgb(85.041809%, 7.476807%, 24.165344%)" offset="0.5625"/><stop stop-opacity="1" stop-color="rgb(84.788513%, 7.603455%, 24.208069%)" offset="0.578125"/><stop stop-opacity="1" stop-color="rgb(84.536743%, 7.730103%, 24.252319%)" offset="0.59375"/><stop stop-opacity="1" stop-color="rgb(84.283447%, 7.85675%, 24.295044%)" offset="0.609375"/><stop stop-opacity="1" stop-color="rgb(84.031677%, 7.981873%, 24.337769%)" offset="0.625"/><stop stop-opacity="1" stop-color="rgb(83.778381%, 8.108521%, 24.382019%)" offset="0.640625"/><stop stop-opacity="1" stop-color="rgb(83.526611%, 8.235168%, 24.424744%)" offset="0.65625"/><stop stop-opacity="1" stop-color="rgb(83.273315%, 8.361816%, 24.468994%)" offset="0.671875"/><stop stop-opacity="1" stop-color="rgb(83.021545%, 8.486938%, 24.511719%)" offset="0.6875"/><stop stop-opacity="1" stop-color="rgb(82.769775%, 8.613586%, 24.554443%)" offset="0.703125"/><stop stop-opacity="1" stop-color="rgb(82.516479%, 8.740234%, 24.598694%)" offset="0.71875"/><stop stop-opacity="1" stop-color="rgb(82.264709%, 8.865356%, 24.641418%)" offset="0.734375"/><stop stop-opacity="1" stop-color="rgb(82.011414%, 8.992004%, 24.685669%)" offset="0.744331"/><stop stop-opacity="1" stop-color="rgb(81.886292%, 9.056091%, 24.707031%)" offset="0.75"/><stop stop-opacity="1" stop-color="rgb(81.759644%, 9.118652%, 24.728394%)" offset="0.765625"/><stop stop-opacity="1" stop-color="rgb(81.506348%, 9.2453%, 24.771118%)" offset="0.78125"/><stop stop-opacity="1" stop-color="rgb(81.254578%, 9.370422%, 24.815369%)" offset="0.796875"/><stop stop-opacity="1" stop-color="rgb(81.001282%, 9.49707%, 24.858093%)" offset="0.8125"/><stop stop-opacity="1" stop-color="rgb(80.749512%, 9.623718%, 24.900818%)" offset="0.828125"/><stop stop-opacity="1" stop-color="rgb(80.496216%, 9.750366%, 24.945068%)" offset="0.84375"/><stop stop-opacity="1" stop-color="rgb(80.244446%, 9.875488%, 24.987793%)" offset="0.859375"/><stop stop-opacity="1" stop-color="rgb(79.992676%, 10.002136%, 25.032043%)" offset="0.875"/><stop stop-opacity="1" stop-color="rgb(79.73175%, 10.131836%, 25.076294%)" offset="1"/></linearGradient><clipPath id="b5d4424e74"><path d="M 132 32 L 250 32 L 250 140 L 132 140 Z M 132 32 " clip-rule="nonzero"/></clipPath><clipPath id="5a26708635"><path d="M 238.972656 79.925781 C 247.085938 100.394531 243.890625 122.542969 232.371094 139.46875 C 248.425781 121.988281 254.050781 96.207031 244.714844 72.671875 C 231.707031 39.878906 194.574219 23.84375 161.785156 36.851562 C 149.460938 41.746094 139.496094 50.050781 132.550781 60.246094 C 138.859375 53.375 146.777344 47.78125 156.027344 44.117188 C 188.832031 31.097656 225.960938 47.132812 238.972656 79.925781 Z M 238.972656 79.925781 " clip-rule="nonzero"/></clipPath><linearGradient x1="200.550506" gradientTransform="matrix(0.937198, 0, 0, 0.937198, -46.799471, -42.583679)" y1="61.719505" x2="327.045489" gradientUnits="userSpaceOnUse" y2="188.214488" id="4a5e608d63"><stop stop-opacity="1" stop-color="rgb(97.090149%, 1.454163%, 22.097778%)" offset="0"/><stop stop-opacity="1" stop-color="rgb(96.922302%, 1.53656%, 22.12677%)" offset="0.03125"/><stop stop-opacity="1" stop-color="rgb(96.588135%, 1.704407%, 22.184753%)" offset="0.0625"/><stop stop-opacity="1" stop-color="rgb(96.252441%, 1.872253%, 22.241211%)" offset="0.09375"/><stop stop-opacity="1" stop-color="rgb(95.918274%, 2.038574%, 22.299194%)" offset="0.125"/><stop stop-opacity="1" stop-color="rgb(95.584106%, 2.206421%, 22.355652%)" offset="0.15625"/><stop stop-opacity="1" stop-color="rgb(95.249939%, 2.374268%, 22.413635%)" offset="0.1875"/><stop stop-opacity="1" stop-color="rgb(94.914246%, 2.540588%, 22.471619%)" offset="0.21875"/><stop stop-opacity="1" stop-color="rgb(94.580078%, 2.708435%, 22.528076%)" offset="0.25"/><stop stop-opacity="1" stop-color="rgb(94.245911%, 2.874756%, 22.58606%)" offset="0.28125"/><stop stop-opacity="1" stop-color="rgb(93.911743%, 3.042603%, 22.644043%)" offset="0.3125"/><stop stop-opacity="1" stop-color="rgb(93.57605%, 3.210449%, 22.7005%)" offset="0.34375"/><stop stop-opacity="1" stop-color="rgb(93.241882%, 3.37677%, 22.758484%)" offset="0.375"/><stop stop-opacity="1" stop-color="rgb(92.907715%, 3.544617%, 22.814941%)" offset="0.40625"/><stop stop-opacity="1" stop-color="rgb(92.572021%, 3.712463%, 22.872925%)" offset="0.4375"/><stop stop-opacity="1" stop-color="rgb(92.237854%, 3.878784%, 22.930908%)" offset="0.46875"/><stop stop-opacity="1" stop-color="rgb(91.903687%, 4.046631%, 22.987366%)" offset="0.487569"/><stop stop-opacity="1" stop-color="rgb(91.737366%, 4.130554%, 23.016357%)" offset="0.5"/><stop stop-opacity="1" stop-color="rgb(91.569519%, 4.214478%, 23.045349%)" offset="0.512431"/><stop stop-opacity="1" stop-color="rgb(91.401672%, 4.298401%, 23.074341%)" offset="0.53125"/><stop stop-opacity="1" stop-color="rgb(91.233826%, 4.380798%, 23.103333%)" offset="0.5625"/><stop stop-opacity="1" stop-color="rgb(90.899658%, 4.548645%, 23.15979%)" offset="0.59375"/><stop stop-opacity="1" stop-color="rgb(90.565491%, 4.714966%, 23.217773%)" offset="0.625"/><stop stop-opacity="1" stop-color="rgb(90.231323%, 4.882812%, 23.274231%)" offset="0.65625"/><stop stop-opacity="1" stop-color="rgb(89.89563%, 5.050659%, 23.332214%)" offset="0.6875"/><stop stop-opacity="1" stop-color="rgb(89.561462%, 5.21698%, 23.390198%)" offset="0.71875"/><stop stop-opacity="1" stop-color="rgb(89.227295%, 5.384827%, 23.446655%)" offset="0.75"/><stop stop-opacity="1" stop-color="rgb(88.893127%, 5.552673%, 23.504639%)" offset="0.78125"/><stop stop-opacity="1" stop-color="rgb(88.557434%, 5.718994%, 23.561096%)" offset="0.8125"/><stop stop-opacity="1" stop-color="rgb(88.223267%, 5.886841%, 23.61908%)" offset="0.84375"/><stop stop-opacity="1" stop-color="rgb(87.889099%, 6.054688%, 23.677063%)" offset="0.875"/><stop stop-opacity="1" stop-color="rgb(87.553406%, 6.221008%, 23.733521%)" offset="0.90625"/><stop stop-opacity="1" stop-color="rgb(87.219238%, 6.388855%, 23.791504%)" offset="0.9375"/><stop stop-opacity="1" stop-color="rgb(86.885071%, 6.555176%, 23.849487%)" offset="0.96875"/><stop stop-opacity="1" stop-color="rgb(86.550903%, 6.723022%, 23.905945%)" offset="1"/></linearGradient><clipPath id="65b3256dcc"><path d="M 128 46 L 228 46 L 228 137 L 128 137 Z M 128 46 " clip-rule="nonzero"/></clipPath><clipPath id="b10ea82787"><path d="M 180.273438 53.414062 C 198.707031 51.117188 216.121094 58.417969 227.5 71.40625 C 216.617188 54.59375 196.769531 44.539062 175.570312 47.179688 C 146.039062 50.855469 125.074219 77.78125 128.757812 107.3125 C 130.132812 118.417969 134.8125 128.304688 141.660156 136.128906 C 137.386719 129.523438 134.5 121.875 133.460938 113.542969 C 129.777344 84.011719 150.742188 57.085938 180.273438 53.414062 Z M 180.273438 53.414062 " clip-rule="nonzero"/></clipPath><linearGradient x1="183.985066" gradientTransform="matrix(0.937198, 0, 0, 0.937198, -46.799471, -42.583679)" y1="92.364895" x2="287.49529" gradientUnits="userSpaceOnUse" y2="195.874689" id="d3555e415d"><stop stop-opacity="1" stop-color="rgb(96.49353%, 1.751709%, 22.200012%)" offset="0"/><stop stop-opacity="1" stop-color="rgb(96.356201%, 1.820374%, 22.2229%)" offset="0.03125"/><stop stop-opacity="1" stop-color="rgb(96.083069%, 1.956177%, 22.270203%)" offset="0.0625"/><stop stop-opacity="1" stop-color="rgb(95.809937%, 2.093506%, 22.317505%)" offset="0.09375"/><stop stop-opacity="1" stop-color="rgb(95.535278%, 2.230835%, 22.364807%)" offset="0.125"/><stop stop-opacity="1" stop-color="rgb(95.262146%, 2.368164%, 22.412109%)" offset="0.15625"/><stop stop-opacity="1" stop-color="rgb(94.987488%, 2.503967%, 22.457886%)" offset="0.1875"/><stop stop-opacity="1" stop-color="rgb(94.714355%, 2.641296%, 22.505188%)" offset="0.21875"/><stop stop-opacity="1" stop-color="rgb(94.439697%, 2.778625%, 22.55249%)" offset="0.25"/><stop stop-opacity="1" stop-color="rgb(94.166565%, 2.914429%, 22.599792%)" offset="0.28125"/><stop stop-opacity="1" stop-color="rgb(93.893433%, 3.051758%, 22.645569%)" offset="0.3125"/><stop stop-opacity="1" stop-color="rgb(93.618774%, 3.189087%, 22.692871%)" offset="0.34375"/><stop stop-opacity="1" stop-color="rgb(93.345642%, 3.326416%, 22.740173%)" offset="0.375"/><stop stop-opacity="1" stop-color="rgb(93.070984%, 3.462219%, 22.787476%)" offset="0.40625"/><stop stop-opacity="1" stop-color="rgb(92.797852%, 3.599548%, 22.834778%)" offset="0.4375"/><stop stop-opacity="1" stop-color="rgb(92.523193%, 3.736877%, 22.880554%)" offset="0.46875"/><stop stop-opacity="1" stop-color="rgb(92.250061%, 3.872681%, 22.927856%)" offset="0.472079"/><stop stop-opacity="1" stop-color="rgb(92.114258%, 3.941345%, 22.952271%)" offset="0.5"/><stop stop-opacity="1" stop-color="rgb(91.976929%, 4.01001%, 22.975159%)" offset="0.527921"/><stop stop-opacity="1" stop-color="rgb(91.8396%, 4.078674%, 22.999573%)" offset="0.53125"/><stop stop-opacity="1" stop-color="rgb(91.702271%, 4.147339%, 23.022461%)" offset="0.5625"/><stop stop-opacity="1" stop-color="rgb(91.429138%, 4.284668%, 23.068237%)" offset="0.59375"/><stop stop-opacity="1" stop-color="rgb(91.15448%, 4.420471%, 23.11554%)" offset="0.625"/><stop stop-opacity="1" stop-color="rgb(90.881348%, 4.5578%, 23.162842%)" offset="0.65625"/><stop stop-opacity="1" stop-color="rgb(90.608215%, 4.695129%, 23.210144%)" offset="0.6875"/><stop stop-opacity="1" stop-color="rgb(90.333557%, 4.830933%, 23.257446%)" offset="0.71875"/><stop stop-opacity="1" stop-color="rgb(90.060425%, 4.968262%, 23.303223%)" offset="0.75"/><stop stop-opacity="1" stop-color="rgb(89.785767%, 5.105591%, 23.350525%)" offset="0.78125"/><stop stop-opacity="1" stop-color="rgb(89.512634%, 5.24292%, 23.397827%)" offset="0.8125"/><stop stop-opacity="1" stop-color="rgb(89.237976%, 5.378723%, 23.445129%)" offset="0.84375"/><stop stop-opacity="1" stop-color="rgb(88.964844%, 5.516052%, 23.492432%)" offset="0.875"/><stop stop-opacity="1" stop-color="rgb(88.691711%, 5.653381%, 23.538208%)" offset="0.90625"/><stop stop-opacity="1" stop-color="rgb(88.417053%, 5.789185%, 23.58551%)" offset="0.9375"/><stop stop-opacity="1" stop-color="rgb(88.143921%, 5.926514%, 23.632812%)" offset="0.96875"/><stop stop-opacity="1" stop-color="rgb(87.869263%, 6.063843%, 23.680115%)" offset="1"/></linearGradient></defs><g clip-path="url(#d89c909394)"><g clip-path="url(#3c3fd2f4a9)"><path fill="url(#991a07a323)" d="M 0.136719 49.222656 L 0.136719 250.777344 L 170.066406 250.777344 L 170.066406 49.222656 Z M 0.136719 49.222656 " fill-rule="nonzero"/></g></g><g clip-path="url(#1551b46103)"><g clip-path="url(#9180382ae3)"><path fill="url(#d3b0f51e89)" d="M 211.6875 49.242188 L 211.6875 250.957031 L 374.855469 250.957031 L 374.855469 49.242188 Z M 211.6875 49.242188 " fill-rule="nonzero"/></g></g><g clip-path="url(#5c1a7f5aea)"><g clip-path="url(#2885e4e7cb)"><path fill="url(#23e769f476)" d="M 140.238281 84.507812 L 140.238281 350.863281 L 231.726562 350.863281 L 231.726562 84.507812 Z M 140.238281 84.507812 " fill-rule="nonzero"/></g></g><g clip-path="url(#b5d4424e74)"><g clip-path="url(#5a26708635)"><path fill="url(#4a5e608d63)" d="M 132.550781 23.863281 L 132.550781 139.46875 L 254.050781 139.46875 L 254.050781 23.863281 Z M 132.550781 23.863281 " fill-rule="nonzero"/></g></g><g clip-path="url(#65b3256dcc)"><g clip-path="url(#b10ea82787)"><path fill="url(#d3555e415d)" d="M 125.074219 44.539062 L 125.074219 136.128906 L 227.5 136.128906 L 227.5 44.539062 Z M 125.074219 44.539062 " fill-rule="nonzero"/></g></g></svg>